<?xml version="1.0" standalone="no"?><!DOCTYPE svg PUBLIC "-//W3C//DTD SVG 1.1//EN" "http://www.w3.org/Graphics/SVG/1.1/DTD/svg11.dtd"><svg t="1696656137778" class="icon" viewBox="0 0 1024 1024" version="1.1" xmlns="http://www.w3.org/2000/svg" p-id="51109" xmlns:xlink="http://www.w3.org/1999/xlink" width="200" height="200"><path d="M302.336 252.416c20.928 0 38.08-17.12 38.08-38.08V47.04c0-20.96-17.152-38.08-38.08-38.08C281.44 8.96 264.32 26.08 264.32 47.04V214.4c0 20.928 17.12 38.048 38.016 38.048" fill="#000000" p-id="51110"></path><path d="M654.208 252.416c20.928 0 38.08-17.12 38.08-38.08V47.04c0-20.96-17.152-38.08-38.08-38.08-20.928 0-38.016 17.12-38.016 38.08V214.4c0 20.928 17.088 38.048 38.016 38.048" fill="#000000" p-id="51111"></path><path d="M70.88 392.8H872.96V316.672H70.88zM350.08 708.416c0-20.864-17.088-37.984-38.016-37.984h-135.36c-20.896 0-38.016 17.12-38.016 37.984 0 20.928 17.12 38.08 38.016 38.08h135.36c20.928 0 38.048-17.152 38.048-38.08M476.96 553.056c0-20.928-17.12-38.08-38.08-38.08H176.736c-20.896 0-38.016 17.152-38.016 38.08 0 20.928 17.12 38.016 38.016 38.016h262.208c20.928 0 38.048-17.088 38.048-38.016" fill="#000000" p-id="51112"></path><path d="M872.96 243.168v149.632h76.16V243.168a147.328 147.328 0 0 0-147.136-147.104H709.76V172.16h92.224A71.04 71.04 0 0 1 872.96 243.2M340.416 909.504h-193.28a71.04 71.04 0 0 1-70.976-70.976V243.168a71.04 71.04 0 0 1 70.976-70.944h94.72v-76.16h-94.72A147.328 147.328 0 0 0 0 243.168v595.36a147.36 147.36 0 0 0 147.136 147.136h193.28v-76.16zM709.76 500.544a86.176 86.176 0 0 0-86.144 86.112 86.176 86.176 0 0 0 86.144 86.144 86.176 86.176 0 0 0 86.112-86.144 86.176 86.176 0 0 0-86.112-86.112m0 246.08c-88.256 0-160-71.712-160-159.968 0-88.224 71.744-160 160-160 88.224 0 160 71.776 160 160 0 88.256-71.776 160-160 160" fill="#000000" p-id="51113"></path><path d="M493.376 990.24l-0.032-0.064c0-120.704 97.088-218.912 216.384-218.912 119.328 0 216.416 98.24 216.416 218.912v0.064h73.856v-0.064c0-161.408-130.24-292.8-290.24-292.8-160.064 0-290.272 131.392-290.272 292.8v0.064h73.92zM362.88 172.224h228.16v-76.16h-228.16z" fill="#000000" p-id="51114"></path></svg>