<?xml version="1.0" standalone="no"?><!DOCTYPE svg PUBLIC "-//W3C//DTD SVG 1.1//EN" "http://www.w3.org/Graphics/SVG/1.1/DTD/svg11.dtd"><svg t="1696653906019" class="icon" viewBox="0 0 1024 1024" version="1.1" xmlns="http://www.w3.org/2000/svg" p-id="4029" xmlns:xlink="http://www.w3.org/1999/xlink" width="200" height="200"><path d="M597.333333 836.266667h68.266667a17.066667 17.066667 0 0 0 17.066667-17.066667v-17.066667h153.6a17.066667 17.066667 0 0 0 0-34.133333H682.666667V750.933333a17.066667 17.066667 0 0 0-17.066667-17.066666h-68.266667a17.066667 17.066667 0 0 0-17.066666 17.066666v68.266667a17.066667 17.066667 0 0 0 17.066666 17.066667z m17.066667-68.266667h34.133333v34.133333h-34.133333v-34.133333z m-17.066667-136.533333h68.266667a17.066667 17.066667 0 0 0 17.066667-17.066667v-17.066667h153.6a17.066667 17.066667 0 0 0 0-34.133333H682.666667V546.133333a17.066667 17.066667 0 0 0-17.066667-17.066666h-68.266667a17.066667 17.066667 0 0 0-17.066666 17.066666v68.266667a17.066667 17.066667 0 0 0 17.066666 17.066667z m17.066667-68.266667h34.133333v34.133333h-34.133333v-34.133333z m-17.066667-136.533333h68.266667a17.066667 17.066667 0 0 0 17.066667-17.066667v-17.066667h153.6a17.066667 17.066667 0 0 0 0-34.133333H682.666667V341.333333a17.066667 17.066667 0 0 0-17.066667-17.066666h-68.266667a17.066667 17.066667 0 0 0-17.066666 17.066666v68.266667a17.066667 17.066667 0 0 0 17.066666 17.066667z m17.066667-68.266667h34.133333v34.133333h-34.133333v-34.133333z m-392.533333-273.066667a17.032533 17.032533 0 1 0 0 34.133334 17.066667 17.066667 0 0 0 0-34.133334z m102.4 0a17.032533 17.032533 0 1 0 0 34.133334 17.066667 17.066667 0 0 0 0-34.133334z m592.6912-68.266666H107.076267C47.991467 17.066667 0 63.726933 0 121.002667v781.960533C0 960.273067 48.059733 1006.933333 107.076267 1006.933333h809.847466c59.050667 0 107.076267-46.626133 107.1104-103.936V121.002667C1024 63.6928 975.9744 17.066667 916.957867 17.066667zM989.866667 902.929067c0 38.5024-32.733867 69.802667-72.942934 69.802666H107.076267C66.833067 972.765867 34.133333 941.431467 34.133333 902.929067V187.733333h955.733334v715.195734zM989.866667 153.6H34.133333v-32.631467C34.133333 82.500267 66.833067 51.2 107.076267 51.2h809.8816C957.166933 51.2 989.866667 82.500267 989.866667 120.968533V153.6z m-870.4-68.266667a17.032533 17.032533 0 1 0 0 34.133334 17.066667 17.066667 0 0 0 0-34.133334z m68.266666 546.133334h68.266667A17.066667 17.066667 0 0 0 273.066667 614.4v-17.066667h153.6a17.066667 17.066667 0 0 0 0-34.133333H273.066667V546.133333a17.066667 17.066667 0 0 0-17.066667-17.066666h-68.266667a17.066667 17.066667 0 0 0-17.066666 17.066666v68.266667a17.066667 17.066667 0 0 0 17.066666 17.066667z m17.066667-68.266667h34.133333v34.133333H204.8v-34.133333z m-17.066667-136.533333h68.266667A17.066667 17.066667 0 0 0 273.066667 409.6v-17.066667h153.6a17.066667 17.066667 0 0 0 0-34.133333H273.066667V341.333333a17.066667 17.066667 0 0 0-17.066667-17.066666h-68.266667a17.066667 17.066667 0 0 0-17.066666 17.066666v68.266667a17.066667 17.066667 0 0 0 17.066666 17.066667z m17.066667-68.266667h34.133333v34.133333H204.8v-34.133333z m-17.066667 477.866667h68.266667A17.066667 17.066667 0 0 0 273.066667 819.2v-17.066667h153.6a17.066667 17.066667 0 0 0 0-34.133333H273.066667V750.933333a17.066667 17.066667 0 0 0-17.066667-17.066666h-68.266667a17.066667 17.066667 0 0 0-17.066666 17.066666v68.266667a17.066667 17.066667 0 0 0 17.066666 17.066667z m17.066667-68.266667h34.133333v34.133333H204.8v-34.133333z" p-id="4030" fill="#1296db"></path></svg>