<?xml version="1.0" standalone="no"?><!DOCTYPE svg PUBLIC "-//W3C//DTD SVG 1.1//EN" "http://www.w3.org/Graphics/SVG/1.1/DTD/svg11.dtd"><svg t="1696656196410" class="icon" viewBox="0 0 1024 1024" version="1.1" xmlns="http://www.w3.org/2000/svg" p-id="52130" xmlns:xlink="http://www.w3.org/1999/xlink" width="200" height="200"><path d="M945.066667 81.066667c49.066667 49.066667 49.066667 130.133333 0 181.333333-25.6 25.6-66.133333 51.2-100.266667 72.533333l40.533333 40.533334c17.066667 17.066667 17.066667 42.666667 0 59.733333l-448 448c-10.666667 8.533333-21.333333 12.8-32 12.8s-21.333333-4.266667-29.866666-12.8l-40.533334-40.533333c-21.333333 36.266667-49.066667 76.8-72.533333 100.266666C236.8 968.533333 202.666667 981.333333 170.666667 981.333333s-66.133333-12.8-89.6-38.4c-49.066667-49.066667-49.066667-130.133333 0-181.333333 25.6-25.6 66.133333-51.2 100.266666-72.533333l-40.533333-40.533334c-17.066667-17.066667-17.066667-42.666667 0-59.733333l448-448c17.066667-17.066667 42.666667-17.066667 59.733333 0l40.533334 40.533333c21.333333-36.266667 49.066667-76.8 72.533333-100.266666 51.2-51.2 132.266667-51.2 183.466667 0z m-61.866667 119.466666c17.066667-17.066667 17.066667-42.666667 0-59.733333-17.066667-17.066667-44.8-17.066667-59.733333 0-23.466667 23.466667-51.2 68.266667-70.4 102.4l27.733333 27.733333c34.133333-19.2 81.066667-46.933333 102.4-70.4zM405.333333 793.6L793.6 405.333333 618.666667 230.4 230.4 618.666667l174.933333 174.933333z m-204.8 89.6c23.466667-23.466667 51.2-68.266667 70.4-102.4l-27.733333-27.733333c-36.266667 19.2-81.066667 49.066667-102.4 70.4-17.066667 17.066667-17.066667 42.666667 0 59.733333 14.933333 17.066667 44.8 17.066667 59.733333 0z" fill="#2F3CF4" p-id="52131"></path></svg>