<?xml version="1.0" standalone="no"?><!DOCTYPE svg PUBLIC "-//W3C//DTD SVG 1.1//EN" "http://www.w3.org/Graphics/SVG/1.1/DTD/svg11.dtd"><svg t="1697529676847" class="icon" viewBox="0 0 1024 1024" version="1.1" xmlns="http://www.w3.org/2000/svg" p-id="45494" xmlns:xlink="http://www.w3.org/1999/xlink" width="200" height="200"><path d="M543.310769 78.769231c223.035077 0 408.182154 173.095385 423.463385 394.909538h1.654154v270.848h9.058461v192.787693h-75.500307v-192.787693h8.11323v-27.963077a423.620923 423.620923 0 0 1-366.946461 211.101539c-151.867077 0-290.579692-80.344615-366.788923-211.101539v65.378462H118.153846V508.849231h0.630154v-5.513846C118.784 269.272615 309.248 78.769231 543.310769 78.769231z m0 56.989538c-202.594462 0-367.419077 164.824615-367.419077 367.379693v5.513846h0.472616v14.966154c10.673231 194.638769 171.835077 347.096615 366.946461 347.096615 195.072 0 356.233846-152.457846 366.946462-347.096615v-40.644924a367.458462 367.458462 0 0 0-366.946462-347.214769z m0 18.156308c192.590769 0 349.341538 156.750769 349.341539 349.380923s-156.750769 349.341538-349.341539 349.341538c-192.630154 0-349.380923-156.711385-349.380923-349.341538 0-192.630154 156.750769-349.341538 349.341539-349.341538z m0 56.989538c-161.161846 0-292.391385 131.072-292.391384 292.391385 0 161.161846 131.072 292.391385 292.391384 292.391385 161.161846 0 292.391385-131.072 292.391385-292.391385-0.157538-161.161846-131.229538-292.391385-292.391385-292.391385z m0 24.891077a267.618462 267.618462 0 0 1 267.342769 267.34277 267.618462 267.618462 0 0 1-267.342769 267.342769 267.618462 267.618462 0 0 1-267.342769-267.342769 267.618462 267.618462 0 0 1 267.342769-267.34277z m0 57.304616a210.392615 210.392615 0 0 0-210.235077 210.195692 210.392615 210.392615 0 0 0 210.235077 210.195692 210.392615 210.392615 0 0 0 210.195693-210.195692 210.392615 210.392615 0 0 0-210.195693-210.195692z" fill="#707070" p-id="45495"></path></svg>