<?xml version="1.0" standalone="no"?><!DOCTYPE svg PUBLIC "-//W3C//DTD SVG 1.1//EN" "http://www.w3.org/Graphics/SVG/1.1/DTD/svg11.dtd"><svg t="1697529815546" class="icon" viewBox="0 0 1024 1024" version="1.1" xmlns="http://www.w3.org/2000/svg" p-id="50738" xmlns:xlink="http://www.w3.org/1999/xlink" width="200" height="200"><path d="M849.170732 0c97.404878 0 174.829268 77.42439 174.829268 174.829268v674.341464c0 97.404878-77.42439 174.829268-174.829268 174.829268H174.829268c-97.404878 0-174.829268-77.42439-174.829268-174.829268V174.829268c0-97.404878 77.42439-174.829268 174.829268-174.829268h674.341464zM449.560976 249.756098h-132.370732L224.780488 429.580488h132.370732l34.965853-67.434147h79.921951V449.560976h-194.809756v167.336585H229.77561v62.439024h242.263414V799.219512h119.882927v-122.380488h197.307317v-62.439024h-197.307317v-102.4h167.336586V449.560976h-167.336586v-87.414635h179.82439V299.707317H424.585366l24.97561-49.951219z m22.478048 262.243902v102.4h-77.42439v-102.4h77.42439z" fill="#0E7EB7" p-id="50739"></path></svg>