<?xml version="1.0" standalone="no"?><!DOCTYPE svg PUBLIC "-//W3C//DTD SVG 1.1//EN" "http://www.w3.org/Graphics/SVG/1.1/DTD/svg11.dtd"><svg t="1697544650561" class="icon" viewBox="0 0 1024 1024" version="1.1" xmlns="http://www.w3.org/2000/svg" p-id="31406" xmlns:xlink="http://www.w3.org/1999/xlink" width="200" height="200"><path d="M709.3 895.94H314.7c-102.91 0-186.64-83.72-186.64-186.64V314.7c0-102.92 83.73-186.64 186.64-186.64h394.6c102.91 0 186.64 83.72 186.64 186.64v394.6c0 102.92-83.73 186.64-186.64 186.64zM314.7 160.05c-85.27 0-154.64 69.36-154.64 154.64v394.6c0 85.28 69.37 154.64 154.64 154.64h394.6c85.27 0 154.64-69.36 154.64-154.64V314.7c0-85.28-69.37-154.64-154.64-154.64H314.7z" fill="#333333" p-id="31407"></path><path d="M421.87 742.53c-2.06 0-4.17-0.4-6.2-1.25-85.52-35.99-143.52-115.65-151.38-207.88-0.76-8.79 5.77-16.54 14.58-17.29 8.54-0.92 16.54 5.75 17.29 14.58 6.85 80.34 57.41 149.75 131.93 181.1 8.14 3.44 11.97 12.81 8.54 20.96-2.58 6.11-8.51 9.78-14.76 9.78zM593.25 746.03c-6.49 0-12.59-3.98-14.99-10.42-3.09-8.27 1.12-17.5 9.4-20.58 78.07-29.1 133.09-101.46 140.17-184.35 0.75-8.81 8.58-15.46 17.29-14.58 8.81 0.75 15.34 8.5 14.58 17.29-8.1 95.15-71.25 178.22-160.87 211.63a15.83 15.83 0 0 1-5.58 1.01zM333.16 379.21c-3.6 0-7.24-1.21-10.23-3.71-6.79-5.64-7.71-15.75-2.05-22.52 47.41-56.95 117.08-89.61 191.12-89.61 73.54 0 142.89 32.29 190.28 88.59 5.69 6.77 4.82 16.85-1.94 22.56-6.76 5.69-16.85 4.79-22.54-1.94-41.3-49.08-101.73-77.22-165.81-77.22-64.51 0-125.21 28.45-166.54 78.07-3.14 3.82-7.7 5.78-12.29 5.78zM289.19 500.54c-31.58 0-57.26-25.7-57.26-57.28S257.61 386 289.19 386s57.27 25.68 57.27 57.26-25.69 57.28-57.27 57.28z m0-82.55c-13.94 0-25.27 11.33-25.27 25.27s11.33 25.29 25.27 25.29 25.28-11.35 25.28-25.29-11.34-25.27-25.28-25.27zM734.47 500.54c-31.58 0-57.26-25.7-57.26-57.28S702.89 386 734.47 386s57.27 25.68 57.27 57.26-25.7 57.28-57.27 57.28z m0-82.55c-13.94 0-25.27 11.33-25.27 25.27s11.33 25.29 25.27 25.29 25.28-11.35 25.28-25.29-11.35-25.27-25.28-25.27zM512 801.89c-31.58 0-57.27-25.7-57.27-57.28 0-31.58 25.69-57.26 57.27-57.26s57.26 25.68 57.26 57.26-25.68 57.28-57.26 57.28z m0-82.55c-13.94 0-25.28 11.33-25.28 25.27S498.06 769.9 512 769.9c13.94 0 25.27-11.35 25.27-25.29s-11.33-25.27-25.27-25.27z" fill="#0CC1BC" p-id="31408"></path><path d="M717.65 246.83m-21.33 0a21.33 21.33 0 1 0 42.66 0 21.33 21.33 0 1 0-42.66 0Z" fill="#333333" p-id="31409"></path><path d="M781.64 246.83m-21.33 0a21.33 21.33 0 1 0 42.66 0 21.33 21.33 0 1 0-42.66 0Z" fill="#333333" p-id="31410"></path></svg>