<?xml version="1.0" standalone="no"?><!DOCTYPE svg PUBLIC "-//W3C//DTD SVG 1.1//EN" "http://www.w3.org/Graphics/SVG/1.1/DTD/svg11.dtd"><svg t="1697542650079" class="icon" viewBox="0 0 1024 1024" version="1.1" xmlns="http://www.w3.org/2000/svg" p-id="8838" xmlns:xlink="http://www.w3.org/1999/xlink" width="200" height="200"><path d="M52.736 11.264c20.992 0 39.424 15.36 43.008 36.352l0.512 7.168v877.568H977.92c20.992 0 39.424 15.36 43.008 36.352l0.512 7.168c0 20.992-15.36 39.424-36.352 43.008H9.216V54.272c0-23.552 19.456-43.008 43.52-43.008z" fill="#343399" p-id="8839"></path><path d="M790.528 742.912c2.56 2.56 5.632 4.096 9.216 4.096 3.072 0 6.144-1.024 8.192-3.072l63.488-56.32c2.56-2.048 4.096-5.12 4.096-8.192 0-3.072-1.024-6.656-3.072-9.216l-56.32-63.488c-2.56-2.56-5.632-4.096-9.216-4.096-3.072 0-5.632 1.024-8.192 3.072l-63.488 56.832c-2.56 2.048-4.096 5.12-4.096 8.704 0 3.072 1.024 6.656 3.072 8.704l56.32 62.976zM403.456 565.248c0 3.072 1.024 6.656 3.072 8.704l56.32 63.488c2.56 2.56 5.632 4.096 9.216 4.096 3.072 0 6.144-1.024 8.192-3.072l63.488-56.832c2.56-2.048 4.096-5.12 4.096-8.704 0-3.072-1.024-6.656-3.072-8.704l-56.32-63.488c-2.56-2.56-5.632-4.096-9.216-4.096-3.072 0-6.144 1.024-8.192 3.072l-63.488 56.32c-2.56 3.072-4.096 6.144-4.096 9.216zM635.392 637.44c2.56 2.56 5.632 4.096 9.216 4.096 3.072 0 6.144-1.024 8.192-3.072l63.488-56.832c5.12-4.608 5.632-12.288 1.024-17.408l-56.32-63.488c-2.56-2.56-5.632-4.096-9.216-4.096-3.072 0-6.144 1.024-8.192 3.072l-63.488 56.32c-5.12 4.608-5.632 12.288-1.024 17.408l56.32 64zM371.712 371.2c2.56 2.56 5.632 4.096 9.216 4.096 3.072 0 6.144-1.024 8.192-3.072l63.488-56.832c5.12-4.608 5.632-12.288 1.024-17.408L396.8 234.496c-2.56-2.56-6.144-4.096-9.216-4.096-3.072 0-6.144 1.024-8.192 3.072L315.904 290.304c-5.12 4.608-5.632 12.288-1.024 17.408l56.832 63.488zM424.96 740.864c-2.56-2.56-5.632-4.096-9.216-4.096-2.56 0-5.632 1.024-7.68 2.56l-64 56.832c-2.56 2.048-4.096 5.12-4.096 8.704 0 3.072 1.024 6.656 3.072 8.704l56.832 63.488c2.56 2.56 5.632 4.096 9.216 4.096 3.072 0 6.144-1.024 8.192-3.072l63.488-56.832c2.56-2.048 4.096-5.12 4.096-8.704 0-3.072-1.024-6.656-3.072-8.704L424.96 740.864zM339.456 693.76l-56.32-63.488c-2.56-2.56-5.632-4.096-9.216-4.096-3.072 0-6.144 1.024-8.192 3.072l-63.488 56.32c-2.56 2.048-4.096 5.12-4.096 8.192 0 3.072 1.024 6.656 3.072 8.704l56.32 63.488c2.56 2.56 5.632 4.096 9.216 4.096 3.072 0 6.144-1.024 8.192-3.072l63.488-56.832c2.56-2.048 4.096-5.12 4.096-8.704 0-2.56-1.024-5.632-3.072-7.68z" fill="#F59D0D" p-id="8840"></path><path d="M918.016 778.24l-10.24 0.512c-18.944 1.024-37.888 1.536-55.808 1.536-187.904 0-336.896-52.224-442.88-155.136-182.272-176.64-178.176-445.44-178.176-448l0.512-10.24-68.096-1.536-0.512 10.24c-0.512 12.288-6.144 299.52 198.144 498.688 119.296 115.712 284.16 174.592 490.496 174.592 19.456 0 39.424-0.512 59.904-1.536l10.24-0.512-3.584-68.608z" fill="#F59D0D" p-id="8841"></path></svg>