<?xml version="1.0" standalone="no"?><!DOCTYPE svg PUBLIC "-//W3C//DTD SVG 1.1//EN" "http://www.w3.org/Graphics/SVG/1.1/DTD/svg11.dtd"><svg t="1697528277374" class="icon" viewBox="0 0 1024 1024" version="1.1" xmlns="http://www.w3.org/2000/svg" p-id="11250" xmlns:xlink="http://www.w3.org/1999/xlink" width="200" height="200"><path d="M882.47272719 381.09090875L533.38181844 32H204.36363594a61.96363594 61.96363594 0 0 0-43.63636313 18.32727281 61.09090875 61.09090875 0 0 0-18.32727281 43.63636313v833.45454562A62.4 62.4 0 0 0 204.36363594 992h615.27272812a62.4 62.4 0 0 0 43.63636313-18.32727281 59.78181844 59.78181844 0 0 0 18.76363687-43.63636313V381.09090875z m-57.6 547.2c0 3.92727281 0 5.23636406-5.23636313 5.23636406H204.36363594c-3.92727281 0-5.23636406 0-5.23636313-5.23636406V94.83636406c0-3.49090875 0-5.23636406 5.23636313-5.23636406h305.45454562l26.18181844 26.18181844H533.38181844L800 381.09090875l24.43636406 24.43636406v32.29090875z m-109.09090875-392.72727281h-67.63636407a168.43636406 168.43636406 0 0 0-16.58181843-36.65454469l43.63636406-43.63636406a26.61818156 26.61818156 0 0 0 0-37.96363594l-19.2-18.76363688a27.49090875 27.49090875 0 0 0-38.4 0l-43.63636406 43.63636407A164.07272719 164.07272719 0 0 0 533.38181844 424.72727281V366.69090875A27.05454562 27.05454562 0 0 0 506.32727281 337.45454563h-27.05454562a27.05454562 27.05454562 0 0 0-27.05454563 27.05454562V424.72727281a158.4 158.4 0 0 0-43.63636312 18.32727282l-38.4-37.96363688a27.05454562 27.05454562 0 0 0-38.4 0L313.01818156 424.72727281a27.05454562 27.05454562 0 0 0 0 37.96363594l38.83636406 38.83636406a160.14545438 160.14545438 0 0 0-17.89090968 46.69090875H282.90909125a27.05454562 27.05454562 0 0 0-27.05454562 27.05454563v27.05454562a27.05454562 27.05454562 0 0 0 27.05454562 27.05454563h54.54545437a155.78181844 155.78181844 0 0 0 21.81818157 43.63636312l-36.65454563 36.65454563a27.05454562 27.05454562 0 0 0 0 37.96363687l19.2 19.2a27.49090875 27.49090875 0 0 0 38.4 0l41.0181825-41.0181825a160.14545438 160.14545438 0 0 0 43.63636313 14.4v56.29090969a27.05454562 27.05454562 0 0 0 27.05454562 27.05454469h27.05454563a27.05454562 27.05454562 0 0 0 27.05454562-27.05454469v-62.4a158.83636406 158.83636406 0 0 0 38.4-19.2l43.63636313 43.63636313a27.05454562 27.05454562 0 0 0 38.4 0l19.2-19.2a26.61818156 26.61818156 0 0 0 0-37.96363594l-47.56363594-48a159.27272719 159.27272719 0 0 0 13.09090875-37.96363688h64.58181844a27.05454562 27.05454562 0 0 0 27.05454562-27.05454562v-27.05454469a27.05454562 27.05454562 0 0 0-27.05454562-26.6181825z m-222.98181844 154.03636406a107.78181844 107.78181844 0 1 1 108.21818156-107.78181844 107.78181844 107.78181844 0 0 1-108.21818156 107.78181844z" p-id="11251" fill="#1296db"></path></svg>