<?xml version="1.0" standalone="no"?><!DOCTYPE svg PUBLIC "-//W3C//DTD SVG 1.1//EN" "http://www.w3.org/Graphics/SVG/1.1/DTD/svg11.dtd"><svg t="1696656245788" class="icon" viewBox="0 0 1024 1024" version="1.1" xmlns="http://www.w3.org/2000/svg" p-id="53960" xmlns:xlink="http://www.w3.org/1999/xlink" width="200" height="200"><path d="M1002.666667 460.8l-183.466667-341.333333c-17.066667-34.133333-55.466667-55.466667-93.866667-55.466667H298.666667c-38.4 0-76.8 21.333333-93.866667 55.466667l-183.466667 341.333333c-17.066667 29.866667-17.066667 68.266667 0 102.4l183.466667 341.333333c17.066667 34.133333 55.466667 55.466667 93.866667 55.466667h426.666666c38.4 0 76.8-21.333333 93.866667-55.466667l183.466667-341.333333c17.066667-34.133333 17.066667-68.266667 0-102.4z m-76.8 59.733333l-183.466667 341.333334c-4.266667 8.533333-12.8 12.8-17.066667 12.8H298.666667c-8.533333 0-17.066667-4.266667-17.066667-12.8l-183.466667-341.333334c-4.266667-4.266667-4.266667-12.8 0-21.333333l183.466667-341.333333c0-4.266667 8.533333-8.533333 17.066667-8.533334h426.666666c8.533333 0 17.066667 4.266667 17.066667 12.8l183.466667 341.333334c4.266667 4.266667 4.266667 12.8 0 17.066666z" p-id="53961" fill="#d81e06"></path><path d="M238.933333 448h51.2c17.066667 0 34.133333-12.8 34.133334-34.133333S307.2 384 290.133333 384H238.933333c-42.666667 0-81.066667 34.133333-81.066666 81.066667s34.133333 81.066667 81.066666 81.066666c8.533333 0 17.066667 8.533333 17.066667 17.066667s-8.533333 17.066667-17.066667 17.066667H192c-17.066667 0-34.133333 12.8-34.133333 34.133333s17.066667 25.6 34.133333 25.6h51.2c42.666667 0 81.066667-34.133333 81.066667-81.066667s-34.133333-81.066667-81.066667-81.066666c-8.533333 0-17.066667-8.533333-17.066667-17.066667s4.266667-12.8 12.8-12.8zM469.333333 384H371.2c-17.066667 0-29.866667 12.8-29.866667 34.133333s12.8 34.133333 34.133334 34.133334h17.066666v162.133333c0 17.066667 12.8 34.133333 34.133334 34.133333s34.133333-12.8 34.133333-34.133333v-162.133333h8.533333c17.066667 0 34.133333-12.8 34.133334-34.133334S486.4 384 469.333333 384zM597.333333 384c-42.666667 0-81.066667 38.4-81.066666 81.066667v93.866666c0 42.666667 38.4 81.066667 81.066666 81.066667s81.066667-38.4 81.066667-81.066667v-93.866666c0-42.666667-34.133333-81.066667-81.066667-81.066667z m17.066667 174.933333c0 8.533333-8.533333 17.066667-17.066667 17.066667s-17.066667-8.533333-17.066666-17.066667v-93.866666c0-8.533333 8.533333-17.066667 17.066666-17.066667s17.066667 8.533333 17.066667 17.066667v93.866666zM785.066667 384h-51.2c-17.066667 0-34.133333 12.8-34.133334 34.133333v187.733334c0 17.066667 12.8 34.133333 34.133334 34.133333s34.133333-12.8 34.133333-34.133333v-64h17.066667c42.666667 0 81.066667-34.133333 81.066666-81.066667S827.733333 384 785.066667 384z m0 93.866667H768v-34.133334h17.066667c8.533333 0 17.066667 8.533333 17.066666 17.066667s-8.533333 17.066667-17.066666 17.066667z" p-id="53962" fill="#d81e06"></path></svg>