<?xml version="1.0" standalone="no"?><!DOCTYPE svg PUBLIC "-//W3C//DTD SVG 1.1//EN" "http://www.w3.org/Graphics/SVG/1.1/DTD/svg11.dtd"><svg t="1697544222090" class="icon" viewBox="0 0 1024 1024" version="1.1" xmlns="http://www.w3.org/2000/svg" p-id="17208" xmlns:xlink="http://www.w3.org/1999/xlink" width="200" height="200"><path d="M225.5 241.692c-9.285-3.673-19.406-5.692-30-5.692-10.594 0-20.715 2.019-30 5.692V99c0-16.569 13.431-30 30-30 16.569 0 30 13.431 30 30v142.692z m0 151.423V925c0 16.569-13.431 30-30 30-16.569 0-30-13.431-30-30V393.115c9.285 3.673 19.406 5.692 30 5.692 10.594 0 20.715-2.019 30-5.692z m313.108 235.627C529.294 625.037 519.135 623 508.5 623c-10.552 0-20.637 2.006-29.892 5.656V99c0-16.569 13.432-30 30-30 16.569 0 30 13.431 30 30v529.742z m0 151.516V925c0 16.569-13.431 30-30 30-16.568 0-30-13.431-30-30V780.344c9.255 3.65 19.34 5.656 29.892 5.656 10.635 0 20.794-2.037 30.108-5.742z m321.5-425.322c-9.45-3.828-19.783-5.936-30.608-5.936-10.363 0-20.274 1.932-29.392 5.454V99c0-16.569 13.432-30 30-30 16.569 0 30 13.431 30 30v255.936z m0 150.935V925c0 16.569-13.431 30-30 30-16.568 0-30-13.431-30-30V506.352c9.118 3.523 19.03 5.455 29.392 5.455 10.825 0 21.158-2.108 30.608-5.936z" fill="#85A5FF" p-id="17209"></path><path d="M195.5 458.807c-78.132 0-141.5-63.293-141.5-141.404C54 239.293 117.368 176 195.5 176S337 239.293 337 317.403c0 78.111-63.368 141.404-141.5 141.404zM508.5 846C430.352 846 367 782.648 367 704.5S430.352 563 508.5 563 650 626.352 650 704.5 586.648 846 508.5 846z m321-274.193c-78.132 0-141.5-63.293-141.5-141.404C688 352.293 751.368 289 829.5 289S971 352.293 971 430.403c0 78.111-63.368 141.404-141.5 141.404z m-634-173c45.011 0 81.5-36.446 81.5-81.404C277 272.446 240.511 236 195.5 236S114 272.446 114 317.403c0 44.958 36.489 81.404 81.5 81.404zM508.5 786c45.011 0 81.5-36.489 81.5-81.5S553.511 623 508.5 623 427 659.489 427 704.5s36.489 81.5 81.5 81.5z m321-274.193c45.011 0 81.5-36.446 81.5-81.404C911 385.446 874.511 349 829.5 349S748 385.446 748 430.403c0 44.958 36.489 81.404 81.5 81.404z" fill="#2F54EB" p-id="17210"></path></svg>