<?xml version="1.0" standalone="no"?><!DOCTYPE svg PUBLIC "-//W3C//DTD SVG 1.1//EN" "http://www.w3.org/Graphics/SVG/1.1/DTD/svg11.dtd"><svg t="1697542538026" class="icon" viewBox="0 0 1706 1024" version="1.1" xmlns="http://www.w3.org/2000/svg" p-id="5019" xmlns:xlink="http://www.w3.org/1999/xlink" width="333.203125" height="200"><path d="M123.966061 989.090909C8.626424 910.584242 7.757576 907.046788 7.757576 512S8.626424 113.415758 123.966061 34.909091C175.197091 0.046545 176.003879 0 843.993212 0.03103c745.565091 0.015515 739.979636-0.713697 811.938909 106.992485C1689.972364 157.944242 1691.151515 171.597576 1691.151515 512s-1.179152 354.040242-35.219394 404.976485c-71.959273 107.706182-66.373818 106.97697-811.938909 106.992485-667.989333 0.03103-668.796121 0-720.027151-34.878061z m1424.833939-67.801212C1616.911515 876.637091 1629.090909 814.545455 1629.090909 512c0-301.614545-11.651879-361.689212-79.39103-409.134545C1517.692121 80.461576 1438.378667 77.575758 850.121697 77.575758H186.678303L136.005818 122.817939 85.333333 168.060121 80.616727 501.76 75.869091 835.428848l46.064485 51.61891 46.064485 51.618909 206.894545 7.757575c113.803636 4.266667 416.302545 5.709576 672.22497 3.211637 386.699636-3.785697 471.458909-8.579879 501.666909-28.361697zM713.69697 660.635152v-148.433455l-73.15394 55.854545c-86.652121 66.125576-109.164606 44.419879-27.911757-26.918787C663.986424 496.019394 760.242424 371.525818 760.242424 350.17697c0-4.871758-45.381818-8.843636-100.848485-8.843637-56.894061 0-100.848485-6.764606-100.848484-15.515151 0-8.874667 46.809212-15.515152 109.397333-15.515152h109.397333l22.543515-53.946182c20.929939-50.082909 25.320727-52.673939 61.37794-36.243393 35.064242 15.980606 36.553697 20.200727 15.453091 43.52C839.71103 304.515879 847.716848 310.30303 941.304242 310.30303c60.105697 0 96.985212-8.145455 116.363637-25.677575 26.453333-23.939879 30.487273-23.769212 59.407515 2.404848 17.066667 15.437576 31.030303 33.978182 31.030303 41.192727 0 7.214545-72.564364 13.110303-161.24897 13.110303C824.226909 341.333333 806.787879 347.461818 806.787879 404.666182c0 21.131636 161.419636 17.283879 183.078788-4.375273 40.96-40.96 55.296 12.8 51.386181 192.822303-4.437333 204.288-16.787394 230.213818-93.432242 196.297697-58.88-26.065455-65.923879-65.303273-9.153939-51.044848 35.141818 8.812606 38.787879 5.197576 38.787878-38.508606V651.636364H777.464242l-4.732121 73.557333c-3.568485 55.420121-11.419152 74.829576-31.883636 78.708364-24.327758 4.623515-27.151515-10.286545-27.151515-143.266909z m263.757575-78.81697c0-37.391515-3.61503-38.787879-100.848484-38.787879s-100.848485 1.396364-100.848485 38.787879 3.61503 38.787879 100.848485 38.787879 100.848485-1.396364 100.848484-38.787879z m0-100.848485c0-27.849697-10.348606-31.030303-100.848484-31.030303s-100.848485 3.180606-100.848485 31.030303 10.348606 31.030303 100.848485 31.030303 100.848485-3.180606 100.848484-31.030303z" p-id="5020"></path></svg>