<?xml version="1.0" standalone="no"?><!DOCTYPE svg PUBLIC "-//W3C//DTD SVG 1.1//EN" "http://www.w3.org/Graphics/SVG/1.1/DTD/svg11.dtd"><svg t="1697508781852" class="icon" viewBox="0 0 1024 1024" version="1.1" xmlns="http://www.w3.org/2000/svg" p-id="19055" xmlns:xlink="http://www.w3.org/1999/xlink" width="200" height="200"><path d="M512 507.508772a158.513932 158.513932 0 1 1 158.513932-158.513932 158.513932 158.513932 0 0 1-158.513932 158.513932z m0-261.812178a105.675955 105.675955 0 1 0 105.675955 105.675955 105.675955 105.675955 0 0 0-105.675955-105.675955zM339.219814 796.268318a158.513932 158.513932 0 1 1 158.513932-157.192983 158.513932 158.513932 0 0 1-158.513932 157.192983z m0-261.812178a105.675955 105.675955 0 1 0 105.675955 105.675955 105.675955 105.675955 0 0 0-105.675955-105.675955zM684.780186 796.268318a158.513932 158.513932 0 1 1 158.513932-157.192983 158.513932 158.513932 0 0 1-158.513932 157.192983z m0-261.812178a105.675955 105.675955 0 1 0 105.675954 105.675955 105.675955 105.675955 0 0 0-105.675954-105.675955z" fill="#1296db" p-id="19056"></path><path d="M785.172343 977.50258H237.770898a191.801858 191.801858 0 0 1-191.537668-191.537668V237.770898A191.801858 191.801858 0 0 1 237.770898 47.28999h547.401445A191.801858 191.801858 0 0 1 977.50258 237.770898v547.401445A191.801858 191.801858 0 0 1 785.172343 977.50258zM237.770898 100.127967A138.96388 138.96388 0 0 0 100.127967 237.770898v547.401445A138.96388 138.96388 0 0 0 237.770898 924.664603h547.401445A138.69969 138.69969 0 0 0 924.664603 785.172343V237.770898a138.96388 138.96388 0 0 0-138.699691-138.699691z" fill="#1296db" p-id="19057"></path></svg>