<?xml version="1.0" standalone="no"?><!DOCTYPE svg PUBLIC "-//W3C//DTD SVG 1.1//EN" "http://www.w3.org/Graphics/SVG/1.1/DTD/svg11.dtd"><svg t="1697528337952" class="icon" viewBox="0 0 1024 1024" version="1.1" xmlns="http://www.w3.org/2000/svg" p-id="12685" xmlns:xlink="http://www.w3.org/1999/xlink" width="200" height="200"><path d="M732.16 198.656c-48.128 0-87.04 38.912-87.04 87.04 0 20.992 7.68 40.448 19.968 55.296l-138.752 172.032c-9.216-3.584-18.944-5.632-29.696-5.632-9.216 0-17.92 1.536-26.112 4.608L329.216 339.968c11.776-14.848 18.944-33.792 18.944-54.272 0-48.128-38.912-87.04-87.04-87.04s-87.04 38.912-87.04 87.04 38.912 87.04 87.04 87.04c14.336 0 28.16-3.584 40.448-9.728l138.24 168.448c-14.336 14.336-23.552 34.816-23.552 56.832 0 44.544 35.84 80.384 80.384 80.384s80.384-35.84 80.384-80.384c0-20.992-8.192-39.936-20.992-54.272L693.248 363.52c11.776 6.144 25.088 9.216 38.912 9.216 48.128 0 87.04-38.912 87.04-87.04s-38.912-87.04-87.04-87.04z m-471.04 133.12c-25.6 0-46.08-20.48-46.08-46.08s20.48-46.08 46.08-46.08 46.08 20.48 46.08 46.08-20.48 46.08-46.08 46.08z m235.52 299.008c-23.552 0-42.496-18.944-42.496-42.496s18.944-42.496 42.496-42.496 42.496 18.944 42.496 42.496-18.944 42.496-42.496 42.496z m235.52-299.008c-25.6 0-46.08-20.48-46.08-46.08s20.48-46.08 46.08-46.08 46.08 20.48 46.08 46.08-20.48 46.08-46.08 46.08z" fill="#343399" p-id="12686"></path><path d="M732.16 582.656c-3.584 0-7.168 0.512-10.752 0.512l-196.608-239.104c-6.144-7.68-15.36-11.776-25.088-11.776h-0.512c-9.728 0-18.944 4.608-25.088 12.288l-191.488 240.64c-6.656-1.536-13.824-2.56-20.992-2.56-48.128 0-87.04 38.912-87.04 87.04s38.912 87.04 87.04 87.04 87.04-38.912 87.04-87.04c0-27.648-12.8-52.224-32.768-68.096l184.32-231.424 185.856 225.792c-24.064 15.36-40.448 42.496-40.448 73.216 0 48.128 38.912 87.04 87.04 87.04s87.04-38.912 87.04-87.04-39.424-86.528-87.552-86.528z m-471.04 133.12c-25.6 0-46.08-20.48-46.08-46.08s20.48-46.08 46.08-46.08 46.08 20.48 46.08 46.08-20.48 46.08-46.08 46.08z m471.04 0c-25.6 0-46.08-20.48-46.08-46.08s20.48-46.08 46.08-46.08 46.08 20.48 46.08 46.08-20.48 46.08-46.08 46.08z" fill="#F59D0D" p-id="12687"></path></svg>