<?xml version="1.0" standalone="no"?><!DOCTYPE svg PUBLIC "-//W3C//DTD SVG 1.1//EN" "http://www.w3.org/Graphics/SVG/1.1/DTD/svg11.dtd"><svg t="1697528371234" class="icon" viewBox="0 0 1195 1024" version="1.1" xmlns="http://www.w3.org/2000/svg" p-id="14728" xmlns:xlink="http://www.w3.org/1999/xlink" width="233.3984375" height="200"><path d="M1192.262422 246.651345a39.828914 39.828914 0 0 0-39.691809-40.034571 39.211943 39.211943 0 0 0-27.420939 11.105481v-1.096838l-266.600078 241.989785L644.254958 27.352387a54.841878 54.841878 0 0 0-46.684148-27.420939A55.801611 55.801611 0 0 0 548.418777 29.751719L335.358082 458.272441 63.753683 212.238067a38.320762 38.320762 0 0 0-22.553722-7.746415 39.897466 39.897466 0 0 0-39.691809 40.03457c0 1.371047-0.754076 0.754076-1.233943 1.233943l84.456492 634.246315v-2.604989a118.252799 118.252799 0 0 0 74.996268 96.453153 1463.661164 1463.661164 0 0 0 435.033195 48.397957 1450.567666 1450.567666 0 0 0 442.094087-58.4066 117.978589 117.978589 0 0 0 71.979964-94.807896 60.326065 60.326065 0 0 0 0.479867 9.117462l83.83952-630.681594c-0.342762-0.411314-0.891181 0.411314-0.89118-0.822628zM596.40542 936.425062L426.395599 681.547435 596.40542 426.669809l170.009821 254.877626z" p-id="14729" fill="#d81e06"></path></svg>