<?xml version="1.0" standalone="no"?><!DOCTYPE svg PUBLIC "-//W3C//DTD SVG 1.1//EN" "http://www.w3.org/Graphics/SVG/1.1/DTD/svg11.dtd"><svg t="1697544786472" class="icon" viewBox="0 0 1024 1024" version="1.1" xmlns="http://www.w3.org/2000/svg" p-id="35983" xmlns:xlink="http://www.w3.org/1999/xlink" width="200" height="200"><path d="M221.76 907.2L64 960l48.96-147.2c33.92 7.36 78.72 29.76 108.8 94.4zM771.36 72.544L634.112 216.96l183.776 176.32L960 252.64z" fill="#E0EBFE" p-id="35984"></path><path d="M64 992c3.392 0 6.816-0.544 10.144-1.664l279.648-93.312a31.04 31.04 0 0 0 14.944-8l0.736-0.768 472.64-472.32c0.192-0.16 0.224-0.384 0.384-0.544l140.128-140.16a32 32 0 0 0 0-45.248l-188.64-188.608a32 32 0 0 0-45.248 0l-140.16 140.16-0.512 0.32-472.32 472.64-0.256 0.32-0.48 0.448a30.848 30.848 0 0 0-9.056 18.016l-92.32 276.64A32 32 0 0 0 64 992zM771.36 109.248l143.36 143.36-95.296 95.36-143.36-143.392 95.296-95.328zM186.368 694.432L605.024 275.456c0.096-0.096 0.224-0.096 0.32-0.192l25.44-25.44 143.392 143.36-25.44 25.472c-0.096 0.096-0.096 0.224-0.192 0.32L329.6 837.6 217.856 874.88a96.48 96.48 0 0 0-24.64-44.096 96.512 96.512 0 0 0-44.16-24.64L186.368 694.4zM138.88 836.48c12.16 2.88 23.104 8.352 31.68 16.96 8.544 8.544 14.016 19.424 16.896 31.584l-72.896 24.32 24.32-72.864z" fill="#5465CF" p-id="35985"></path><path d="M326.016 713.984a15.936 15.936 0 0 0 11.328-4.672l308.096-308.128a16 16 0 1 0-22.624-22.624L314.688 686.72a16 16 0 0 0 11.328 27.296z" fill="#5465CF" p-id="35986"></path></svg>